<svg width="32" height="19" viewBox="0 0 32 19" fill="none" xmlns="http://www.w3.org/2000/svg">
<path d="M25.2366 12.9929L21.7246 9.56201" stroke="#A33536" stroke-linecap="round" stroke-linejoin="round"/>
<path d="M17.0267 9.56055L13.5137 12.9966" stroke="#A33536" stroke-linecap="round"/>
<mask id="mask0_497_85" style="mask-type:luminance" maskUnits="userSpaceOnUse" x="0" y="0" width="32" height="19">
<path d="M31.1449 0.0878906H0.50293V18.9008H31.1449V0.0878906Z" fill="white"/>
</mask>
<g mask="url(#mask0_497_85)">
<path d="M26.5348 2.80518H12.2158C11.1113 2.80518 10.2158 3.73752 10.2158 4.88763V14.1004C10.2158 15.2505 11.1113 16.1829 12.2158 16.1829H26.5348C27.6394 16.1829 28.5348 15.2505 28.5348 14.1004V4.88763C28.5348 3.73752 27.6394 2.80518 26.5348 2.80518Z" stroke="#A33536" stroke-linecap="round" stroke-linejoin="round"/>
<path d="M11.0117 3.72363L19.3707 11.2663L27.7337 3.72363" stroke="#A33536" stroke-linecap="round" stroke-linejoin="round"/>
<path d="M3.11279 6.05029H10.2158" stroke="#A33536" stroke-linecap="round" stroke-linejoin="round"/>
<path d="M4.94385 9.49414H10.2158" stroke="#A33536" stroke-linecap="round" stroke-linejoin="round"/>
<path d="M6.77588 12.9395H10.2169" stroke="#A33536" stroke-linecap="round" stroke-linejoin="round"/>
</g>
</svg>
